<svg width="23" height="15" viewBox="0 0 23 15" fill="none" xmlns="http://www.w3.org/2000/svg">
<path d="M2.19066 8L17.9797 8L13.1471 12.36C13.0352 12.4611 12.951 12.5778 12.8991 12.7034C12.8473 12.829 12.8288 12.961 12.8449 13.0919C12.8774 13.3564 13.0483 13.6003 13.3202 13.77C13.5921 13.9397 13.9426 14.0214 14.2946 13.997C14.6466 13.9726 14.9713 13.8442 15.1973 13.64L21.8537 7.64C21.8985 7.59228 21.9386 7.54214 21.9736 7.49C21.9736 7.44 22.0401 7.41 22.0667 7.36C22.1271 7.24534 22.1587 7.12329 22.1599 7C22.1587 6.87671 22.1271 6.75466 22.0667 6.64C22.0667 6.59 22.0002 6.56 21.9736 6.51C21.9386 6.45786 21.8985 6.40773 21.8537 6.36L15.1973 0.360002C15.0721 0.247119 14.9154 0.156339 14.7382 0.0941181C14.5611 0.031897 14.3678 -0.000236672 14.1722 1.91036e-06C13.8612 -0.000454603 13.5597 0.0809208 13.3202 0.230002C13.1854 0.313951 13.074 0.417051 12.9923 0.533399C12.9106 0.649746 12.8603 0.777054 12.8442 0.90803C12.8281 1.03901 12.8466 1.17108 12.8986 1.29668C12.9506 1.42229 13.035 1.53895 13.1471 1.64L17.9797 6L2.19066 6C1.83758 6 1.49896 6.10536 1.2493 6.29289C0.999635 6.48043 0.859375 6.73479 0.859375 7C0.859375 7.26522 0.999635 7.51957 1.2493 7.70711C1.49896 7.89464 1.83758 8 2.19066 8Z" fill="#444444"/>
</svg>
